<?xml version="1.0" encoding="UTF-8"?>
<svg id="Layer_2" data-name="Layer 2" xmlns="http://www.w3.org/2000/svg" xmlns:xlink="http://www.w3.org/1999/xlink" viewBox="0 0 287.62 164.17">
  <defs>
    <style>
      .cls-1 {
        fill: url(#linear-gradient-2);
      }

      .cls-2 {
        fill: #fff;
      }

      .cls-3 {
        fill: #6455ff;
      }

      .cls-4 {
        fill: url(#linear-gradient);
      }
    </style>
    <linearGradient id="linear-gradient" x1="47.45" y1="-16.08" x2="294.75" y2="183.48" gradientUnits="userSpaceOnUse">
      <stop offset="0" stop-color="#6f5cff"/>
      <stop offset="1" stop-color="#ae55ff"/>
    </linearGradient>
    <linearGradient id="linear-gradient-2" gradientTransform="translate(202.06 -161.45) rotate(89.02)" xlink:href="#linear-gradient"/>
  </defs>
  <g id="Layer_1-2" data-name="Layer 1">
    <g>
      <g>
        <path class="cls-4" d="M83.43,55.92l59.37-5.81c1.59-.16,2.38-1.03,2.21-2.7l-.51-5.2c-.16-1.66-1.11-2.37-2.7-2.22l-59.37,5.81c-1.59.16-2.38,1.04-2.21,2.7l.51,5.2c.16,1.66,1.11,2.37,2.7,2.22Z"/>
        <path class="cls-4" d="M148.17,79.7l-.37-3.76c-.16-1.66-1.11-2.37-2.7-2.22l-44.13,4.32-.18-1.88,44.13-4.32c1.59-.16,2.38-1.03,2.21-2.7l-1.4-14.3c-.16-1.66-1.11-2.37-2.7-2.21l-59.37,5.81c-1.59.16-2.38,1.03-2.22,2.7l.37,3.76c.16,1.66,1.11,2.37,2.7,2.22l44.13-4.32.18,1.88-44.13,4.32c-1.59.16-2.38,1.04-2.21,2.7l1.4,14.3c.16,1.66,1.11,2.37,2.7,2.22l59.37-5.81c1.59-.16,2.38-1.03,2.21-2.7Z"/>
        <path class="cls-4" d="M86.09,42.9l53.73-5.25c1.73-.17,3.42-.77,3.13-3.81l-.21-2.17c-.3-3.03-2.07-3.3-3.81-3.13l-41.67,4.08-.66-6.79c-.4-4.12-2.14-5.48-6.18-5.08l-6.43.63c-4.04.4-5.49,2.07-5.08,6.18l1,10.26c.4,4.04,2.07,5.49,6.18,5.08Z"/>
        <path class="cls-4" d="M73.82,23.43c-7.95-7.27-14.99.57-19.56,8.28-3.86-.85-8.29-1.06-13.21-.58l-5.95.58c-4.92.48-9.22,1.55-12.85,3.13-5.98-6.68-14.4-13.01-20.79-4.34-7.12,9.67,13.99,6.54,13.99,6.54l1.87.55c-6.31,4.48-9.35,11.19-8.54,19.49l.17,1.7c1.1,11.26,8.93,12.74,22.02,11.75,0,.03,0,.05,0,.08l.76,7.8-18.85,1.84c-1.59.16-2.38,1.04-2.21,2.7l.85,8.67c.16,1.66,1.11,2.37,2.7,2.22l59.37-5.81c1.59-.16,2.38-1.03,2.21-2.7l-.85-8.67c-.16-1.66-1.11-2.37-2.7-2.22l-18.85,1.84-.76-7.8s-.01-.05-.01-.08c13.03-1.56,20.43-4.53,19.33-15.79l-.17-1.7c-.81-8.3-5.1-14.29-12.15-17.46l1.73-.9s21.32-1.02,12.46-9.13Z"/>
        <path class="cls-4" d="M158.6,120.77l-19.3-.44.04-1.67,15.16.35c4.14.09,5.92-1.68,6.01-5.74l.31-13.71c.07-3.19-1.27-4.67-4.54-4.75l-8.49-.19c-3.26-.08-4.68,1.34-4.75,4.54l-22.92-.53c-1.6-.04-2.49.74-2.52,2.41l-.08,3.56c-.04,1.67.81,2.49,2.41,2.52l22.92.53-.06,2.61-27.57-.63.25-11.1c.07-3.19-1.27-4.67-4.54-4.75l-8.49-.19c-3.26-.07-4.68,1.34-4.75,4.54l-.31,13.71c-.09,4.06,1.61,5.92,5.74,6.01l15.16.35-.04,1.67-19.3-.44c-1.6-.04-2.48.74-2.52,2.41l-.1,4.35c-.04,1.67.81,2.49,2.41,2.52l59.64,1.37c1.6.04,2.48-.74,2.52-2.41l.1-4.35c.04-1.67-.81-2.49-2.41-2.52Z"/>
        <path class="cls-4" d="M158.35,131.72l-59.64-1.37c-1.6-.04-2.48.74-2.52,2.41l-.09,3.77c-.04,1.67.81,2.49,2.41,2.52l44.33,1.02-.04,1.89-44.33-1.02c-1.6-.04-2.48.74-2.52,2.41l-.33,14.36c-.04,1.67.81,2.49,2.41,2.52l59.64,1.37c1.6.04,2.48-.74,2.52-2.41l.09-3.77c.04-1.67-.81-2.49-2.41-2.52l-44.33-1.02.04-1.89,44.33,1.02c1.6.04,2.48-.74,2.52-2.41l.33-14.37c.04-1.67-.81-2.49-2.41-2.52Z"/>
        <path class="cls-4" d="M234.83,116.93l-3.55-.08.41-17.85c.04-1.67-.81-2.49-2.41-2.52l-8.85-.2c-1.6-.04-2.48.74-2.52,2.41l-1.39,60.36c-.04,1.67.81,2.49,2.41,2.52l8.85.2c1.6.04,2.49-.74,2.52-2.41l.54-23.51,3.55.08c1.6.04,2.49-.74,2.52-2.41l.32-14.07c.04-1.67-.81-2.49-2.41-2.52Z"/>
        <path class="cls-4" d="M272.51,98.72l-6.51-1.5c-14.07-3.24-20.06,3.06-22.45,13.45l-.91,3.96c-.93,4.03.29,5.87,4.25,6.79l4.53,1.04c3.96.91,5.86-.22,6.79-4.25l.85-3.68c.65-2.83,2.24-4.25,5.14-3.58l3.96.91c2.9.67,3.71,2.64,3.06,5.47l-2.26,9.83c-.68,2.97-1.46,4.06-3.65,3.55l-6.01-1.38c-3.39-.78-5.15.38-5.91,3.7l-1.04,4.53c-.76,3.32.31,5.13,3.7,5.91l10.82,2.49c8.7,2,14.51-1.58,16.85-11.76l3.12-13.58c2.39-10.4-.25-18.67-14.32-21.91Z"/>
        <path class="cls-4" d="M259.49,147.26l-2.26-.52c-4.74-1.09-8.48,3.19-9.81,8.99l-.24,1.06c-.65,2.83.69,4.78,4.16,5.57l6.72,1.54c3.47.8,5.4-.17,6.1-3.21l.24-1.06c1.33-5.8-.16-11.28-4.9-12.37Z"/>
        <path class="cls-4" d="M212.38,98.08l-15.85-.36c-1.51-.03-2.76,1.16-2.8,2.67l-.18,8.03c-.03,1.51,1.16,2.76,2.67,2.8l4.96.11c-1.35,16.55-6.71,32.85-12.16,41.52-.75,1.2-.44,2.78.7,3.62l6.46,4.81c1.26.94,3.06.64,3.91-.68,8.37-12.97,14.67-36.22,14.91-55.78l.05-3.97c.02-1.5-1.17-2.73-2.67-2.77Z"/>
        <path class="cls-4" d="M192.47,104l-.12-3.8c-.05-1.45-1.22-2.61-2.67-2.65l-16.15-.37c-1.51-.03-2.76,1.16-2.8,2.67l-.18,8.03c-.03,1.51,1.16,2.76,2.67,2.8l5.62.13c-.99,13.63-6.29,26.2-11.44,34.21-.78,1.22-.45,2.84.72,3.68l6.54,4.68c1.26.9,3.02.59,3.87-.71,7.41-11.35,14.55-29.39,13.94-48.67Z"/>
        <path class="cls-4" d="M239.74,1.9l-12.97-1.07c-1.56-.13-2.93,1.03-3.06,2.59l-5.01,60.9-18.66.84c-1.56.07-2.77,1.4-2.7,2.96l.34,7.47c.07,1.56,1.4,2.77,2.96,2.7l16.98-.76-.3,3.65c-.13,1.56,1.03,2.93,2.59,3.06l12.97,1.07c1.56.13,2.93-1.03,3.06-2.59l6.4-77.76c.13-1.56-1.03-2.93-2.59-3.06Z"/>
        <rect class="cls-1" x="161.45" y="-9.59" width="43.41" height="63.29" rx="10.99" ry="10.99" transform="translate(157.95 204.81) rotate(-89.02)"/>
        <path class="cls-4" d="M186.29,61.1l26.89.46c1.57.03,2.86-1.22,2.88-2.79l.14-8.37c.03-1.57-1.22-2.86-2.79-2.88l-60.38-1.04c-1.57-.03-2.86,1.22-2.88,2.79l-.14,8.37c-.03,1.57,1.22,2.86,2.79,2.88l14.79.25c-.98,4.42-2.7,10.17-5.7,15.3-2.1,3.58,2.35,7.54,5.9,5.39,8.7-5.25,14.85-13.95,18.51-20.37Z"/>
      </g>
      <g>
        <g>
          <circle class="cls-2" cx="23.08" cy="45.88" r="6.51"/>
          <ellipse class="cls-3" cx="21.45" cy="45.94" rx="1.47" ry="2.57" transform="translate(-4.7 2.51) rotate(-6.03)"/>
        </g>
        <g>
          <circle class="cls-2" cx="55.6" cy="42.7" r="6.51"/>
          <ellipse class="cls-3" cx="53.96" cy="42.76" rx="1.47" ry="2.57" transform="translate(-4.19 5.9) rotate(-6.03)"/>
        </g>
        <g>
          <circle class="cls-2" cx="170.36" cy="21.84" r="3.47"/>
          <circle class="cls-2" cx="183.15" cy="22.06" r="3.47"/>
          <circle class="cls-2" cx="195.95" cy="22.28" r="3.47"/>
        </g>
        <path class="cls-2" d="M31.03,51.54l.08.77c.16,1.64,1.03,2.02,5.18,1.62l7.9-.77c4.16-.41,4.93-.95,4.77-2.59l-.08-.77c-.3-3.08-4.73-3.89-8.94-3.48l-.82.08c-4.21.41-8.4,2.06-8.1,5.14Z"/>
      </g>
    </g>
  </g>
</svg>